Work

Nothing special; cropped, ivtc and encoded to below settings.

File

Format                           : AVI
Format/Info                      : Audio Video Interleave
File size                        : 53.0 MiB
Duration                         : 4mn 50s
Overall bit rate                 : 1 531 Kbps
Writing library                  : VirtualDub build 30091/release

Video

Format                           : AVC
Format/Info                      : Advanced Video Codec
Format profile                   : High@L3.1
Format settings, CABAC           : Yes
Format settings, ReFrames        : 16 frames
Codec ID                         : H264
Duration                         : 4mn 50s
Bit rate                         : 1 200 Kbps
Width                            : 688 pixels
Height                           : 352 pixels
Display aspect ratio             : 1.955
Frame rate                       : 23.976 fps
Resolution                       : 24 bits
Colorimetry                      : 4:2:0
Scan type                        : Progressive
Bits/(Pixel*Frame)               : 0.207
Stream size                      : 41.6 MiB (78%)
Writing library                  : x264 core 68 r1189bm 9d0b5e9
Encoding settings                : cabac=1 / ref=16 / deblock=1:-1:-1 /
 analyse=0x3:0x133 / me=tesa / subme=9 / psy_rd=0.0:0.0 / mixed_ref=1 /
 me_range=32 / chroma_me=1 / trellis=2 / 8x8dct=1 / cqm=0 / deadzone=21,11 /
 chroma_qp_offset=0 / threads=2 / thread_queue=2 / nr=0 / decimate=1 /
 mbaff=0 / bframes=4 / b_pyramid=1 / b_adapt=2 / b_bias=0 / direct=3 /
 wpredb=1 / keyint=240 / keyint_min=24 / scenecut=40 / rc=2pass /
 bitrate=1200 / ratetol=1.0 / qcomp=0.60 / qpmin=10 / qpmax=51 / qpstep=4 /
 cplxblur=20.0 / qblur=0.5 / ip_ratio=1.40 / pb_ratio=1.30 / aq=1:1.00

Audio

Format                           : MPEG Audio
Format version                   : Version 1
Format profile                   : Layer 3
Codec ID                         : 55
Codec ID/Hint                    : MP3
Duration                         : 4mn 50s
Bit rate mode                    : Constant
Bit rate                         : 320 Kbps
Channel(s)                       : 2 channels
Sampling rate                    : 48.0 KHz
Resolution                       : 16 bits
Stream size                      : 11.1 MiB (21%)
Alignment                        : Split accross interleaves
Interleave, duration             : 42 ms (1.00 video frame)
Interleave, preload duration     : 500 ms
Writing library                  : LAME3.98.2

Screens
 
http://i18.photobucket.com/albums/b116/mattlb0619/music_video/igottafeeling/snapshot20090804192818.jpg 
http://i18.photobucket.com/albums/b116/mattlb0619/music_video/igottafeeling/snapshot20090804192834.jpg 
http://i18.photobucket.com/albums/b116/mattlb0619/music_video/igottafeeling/snapshot20090804192853.jpg 
http://i18.photobucket.com/albums/b116/mattlb0619/music_video/igottafeeling/thumbs20090804192856.jpg